{"title":"Le.Prenom[Whats.in.a.Name].2012.DVDRip.XviD.AC3.HORiZON-ArtSubs","uid":8870699,"size":1576141603,"categoryP":"video","categoryS":"movies","magnet":"?xt=urn:btih:764f26030128da5684559569bc4ec8207a45fa5c&amp;dn=Le.Prenom%5BWhats.in.a.Name%5D.2012.DVDRip.XviD.AC3.HORiZON-ArtSubs&amp;tr=udp%3A%2F%2Ftracker.openbittorrent.com%3A80&amp;tr=udp%3A%2F%2Fopen.demonii.com%3A1337&amp;tr=udp%3A%2F%2Ftracker.coppersurfer.tk%3A6969&amp;tr=udp%3A%2F%2Fexodus.desync.com%3A6969","seeders":17,"leechers":3,"uploader":"lletaif","files":3,"time":1378055372,"description":"Title: \nLe Prenom aka What's in a Name (2012)\n\nLanguage:\nFrench\n\nSubtitles:\nEnglish and Brazilian Portuguese\n\nImdb: &lt;a href=&quot;\nhttp://www.imdb.com/title/tt2179121&quot; rel=&quot;nofollow&quot; target=&quot;_NEW&quot;&gt;\nhttp://www.imdb.com/title/tt2179121&lt;/a&gt;\n\nMedia Info:\n\nGeneral\nComplete name                            : Le.Prenom[Whats.in.a.Name].2012.DVDRip.XviD.AC3.HORiZON-ArtSubs\nFormat                                   : AVI\nFormat/Info                              : Audio Video Interleave\nFile size                                : 1.47 GiB\nDuration                                 : 1h 49mn\nOverall bit rate                         : 1 915 Kbps\nWriting application                      : FairUse Wizard - http://fairusewizard.com\nWriting library                          : The best and REALLY easy backup tool\n\nVideo\nID                                       : 0\nFormat                                   : MPEG-4 Visual\nFormat profile                           : Advanced Simple@L5\nFormat settings, BVOP                    : 1\nFormat settings, QPel                    : No\nFormat settings, GMC                     : No warppoints\nFormat settings, Matrix                  : Default (MPEG)\nMuxing mode                              : Packed bitstream\nCodec ID                                 : XVID\nCodec ID/Hint                            : XviD\nDuration                                 : 1h 49mn\nBit rate                                 : 1 714 Kbps\nWidth                                    : 704 pixels\nHeight                                   : 304 pixels\nDisplay aspect ratio                     : 2.35:1\nFrame rate                               : 23.976 fps\nColor space                              : YUV\nChroma subsampling                       : 4:2:0\nBit depth                                : 8 bits\nScan type                                : Progressive\nCompression mode                         : Lossy\nBits/(Pixel*Frame)                       : 0.334\nStream size                              : 1.31 GiB (89%)\nWriting library                          : XviD 1.2.0.dev47 (UTC 2006-11-01)\n\nAudio\nID                                       : 1\nFormat                                   : AC-3\nFormat/Info                              : Audio Coding 3\nMode extension                           : CM (complete main)\nFormat settings, Endianness              : Big\nCodec ID                                 : 2000\nDuration                                 : 1h 49mn\nBit rate mode                            : Constant\nBit rate                                 : 192 Kbps\nChannel(s)                               : 2 channels\nChannel positions                        : Front: L R\nSampling rate                            : 48.0 KHz\nBit depth                                : 16 bits\nCompression mode                         : Lossy\nStream size                              : 151 MiB (10%)\nAlignment                                : Split accross interleaves\nInterleave, duration                     : 42 ms (1.00 video frame)\nInterleave, preload duration             : 500 ms\n\n\n\n \n\n","torrent":{"xt":"urn:btih:764f26030128da5684559569bc4ec8207a45fa5c","amp;dn":"Le.Prenom%5BWhats.in.a.Name%5D.2012.DVDRip.XviD.AC3.HORiZON-ArtSubs","amp;tr":["udp%3A%2F%2Ftracker.openbittorrent.com%3A80","udp%3A%2F%2Fopen.demonii.com%3A1337","udp%3A%2F%2Ftracker.coppersurfer.tk%3A6969","udp%3A%2F%2Fexodus.desync.com%3A6969"],"infoHash":"764f26030128da5684559569bc4ec8207a45fa5c","infoHashBuffer":{"type":"Buffer","data":[118,79,38,3,1,40,218,86,132,85,149,105,188,78,200,32,122,69,250,92]},"announce":[],"urlList":[]}}